<svg id="visual" viewBox="0 0 900 675" width="900" height="675" xmlns="http://www.w3.org/2000/svg" xmlns:xlink="http://www.w3.org/1999/xlink" version="1.1"><rect x="0" y="0" width="900" height="675" fill="#001220"></rect><defs><linearGradient id="grad1_0" x1="25%" y1="0%" x2="100%" y2="100%"><stop offset="23.333333333333336%" stop-color="#001220" stop-opacity="1"></stop><stop offset="76.66666666666666%" stop-color="#001220" stop-opacity="1"></stop></linearGradient></defs><defs><linearGradient id="grad2_0" x1="0%" y1="0%" x2="75%" y2="100%"><stop offset="23.333333333333336%" stop-color="#001220" stop-opacity="1"></stop><stop offset="76.66666666666666%" stop-color="#001220" stop-opacity="1"></stop></linearGradient></defs><g transform="translate(900, 0)"><path d="M0 365.6C-37.8 363.6 -75.7 361.6 -113 347.7C-150.3 333.8 -187.1 308 -194.6 267.8C-202 227.5 -180.2 172.8 -203.1 147.5C-225.9 122.2 -293.6 126.3 -328.1 106.6C-362.7 86.9 -364.1 43.5 -365.6 0L0 0Z" fill="#FBAE3C"></path></g><g transform="translate(0, 675)"><path d="M0 -365.6C25.2 -323.9 50.3 -282.2 90.2 -277.7C130.1 -273.2 184.7 -306 214.9 -295.8C245.1 -285.5 250.8 -232.2 269.4 -195.7C288 -159.2 319.4 -139.5 337.6 -109.7C355.8 -79.9 360.7 -39.9 365.6 0L0 0Z" fill="#FBAE3C"></path></g></svg>